HIERARCHY
ROOT Hips
{
    OFFSET 0.000000 0.000000 0.000000
    CHANNELS 6 Xposition Yposition Zposition Zrotation Xrotation Yrotation
    JOINT Chest
    {
        OFFSET -0.000000 0.078597 0.000000
        CHANNELS 3 Zrotation Xrotation Yrotation
        JOINT Chest2
        {
            OFFSET -0.000000 0.230468 0.000000
            CHANNELS 3 Zrotation Xrotation Yrotation
            JOINT Neck
            {
                OFFSET -0.000000 0.249638 0.000000
                CHANNELS 3 Zrotation Xrotation Yrotation
                JOINT Head
                {
                    OFFSET -0.000000 0.103998 0.019170
                    CHANNELS 3 Zrotation Xrotation Yrotation
                    End Site
                    {
                        OFFSET -0.000000 0.191701 0.000000
                    }
                }
            }
            JOINT LeftCollar
            {
                OFFSET 0.038274 0.205938 -0.001496
                CHANNELS 3 Zrotation Xrotation Yrotation
                JOINT LeftShoulder
                {
                    OFFSET 0.132388 0.000000 0.000000
                    CHANNELS 3 Zrotation Xrotation Yrotation
                    JOINT LeftElbow
                    {
                        OFFSET 0.250301 0.000000 0.000000
                        CHANNELS 3 Zrotation Xrotation Yrotation
                        JOINT LeftWrist
                        {
                            OFFSET 0.285291 0.000000 0.000000
                            CHANNELS 3 Zrotation Xrotation Yrotation
                            End Site
                            {
                                OFFSET 0.000000 -0.143776 0.000000
                            }
                        }
                    }
                }
            }
            JOINT RightCollar
            {
                OFFSET -0.038406 0.205938 -0.001496
                CHANNELS 3 Zrotation Xrotation Yrotation
                JOINT RightShoulder
                {
                    OFFSET -0.132388 0.000000 0.000000
                    CHANNELS 3 Zrotation Xrotation Yrotation
                    JOINT RightElbow
                    {
                        OFFSET -0.250301 0.000000 0.000000
                        CHANNELS 3 Zrotation Xrotation Yrotation
                        JOINT RightWrist
                        {
                            OFFSET -0.285291 0.000000 0.000000
                            CHANNELS 3 Zrotation Xrotation Yrotation
                            End Site
                            {
                                OFFSET -0.000000 -0.143776 0.000000
                            }
                        }
                    }
                }
            }
        }
    }
    JOINT LeftHip
    {
        OFFSET 0.095851 0.000000 0.000000
        CHANNELS 3 Zrotation Xrotation Yrotation
        JOINT LeftKnee
        {
            OFFSET -0.000000 -0.406444 0.000000
            CHANNELS 3 Zrotation Xrotation Yrotation
            JOINT LeftAnkle
            {
                OFFSET -0.000000 -0.408443 0.000000
                CHANNELS 3 Zrotation Xrotation Yrotation
                JOINT LeftToe
                {
                    OFFSET -0.000000 -0.062303 0.143776
                    CHANNELS 3 Zrotation Xrotation Yrotation
                    End Site
                    {
                        OFFSET -0.000000 0.000000 0.038340
                    }
                }
            }
        }
    }
    JOINT RightHip
    {
        OFFSET -0.095851 0.000000 0.000000
        CHANNELS 3 Zrotation Xrotation Yrotation
        JOINT RightKnee
        {
            OFFSET -0.000000 -0.406444 0.000000
            CHANNELS 3 Zrotation Xrotation Yrotation
            JOINT RightAnkle
            {
                OFFSET -0.000000 -0.408443 0.000000
                CHANNELS 3 Zrotation Xrotation Yrotation
                JOINT RightToe
                {
                    OFFSET -0.000000 -0.062303 0.143776
                    CHANNELS 3 Zrotation Xrotation Yrotation
                    End Site
                    {
                        OFFSET -0.000000 0.000000 0.038340
                    }
                }
            }
        }
    }
}
MOTION
Frames:    9
Frame Time:    0.016667
-0.022148    0.894024    0.132895    -0.586616    1.785923    -176.361267    -0.034434    0.680909    -0.643138    -2.786512    -3.273619    -0.294284    1.439304    10.783922    0.047325    -1.137840    -0.221601    0.522065    12.905937    0.172217    -1.854800    -11.771933    0.796748    -9.236657    -3.108106    -5.216931    2.304168    97.414665    -4.759862    5.463269    -12.824508    0.357647    1.818533    19.241344    -0.297795    0.813508    -0.801623    -6.076498    -2.413336    -90.966339    1.549412    -6.080219    4.499459    7.187769    -1.001989    -1.188941    -3.246787    -6.767121    -5.779578    -4.108957    13.331809    0.000000    0.000000    0.000000    -3.837565    10.406375    2.606209    0.800965    -8.588243    2.389959    3.163926    -1.894138    -17.087126    0.000000    0.000000    0.000000    
-0.022148    0.894024    0.132895    -0.586616    1.785923    -176.361267    -0.034434    0.680909    -0.643138    -2.786512    -3.273619    -0.294284    1.439304    10.783922    0.047325    -1.137840    -0.221601    0.522065    12.905937    0.172217    -1.854800    -11.771933    0.796748    -9.236657    -3.108106    -5.216931    2.304168    97.414665    -4.759862    5.463269    -12.824508    0.357647    1.818533    19.241344    -0.297795    0.813508    -0.801623    -6.076498    -2.413336    -90.966339    1.549412    -6.080219    4.499459    7.187769    -1.001989    -1.188941    -3.246787    -6.767121    -5.779578    -4.108957    13.331809    0.000000    0.000000    0.000000    -3.837565    10.406375    2.606209    0.800965    -8.588243    2.389959    3.163926    -1.894138    -17.087126    0.000000    0.000000    0.000000    
-0.022148    0.894024    0.132895    -0.586616    1.785923    -176.361267    -0.034434    0.680909    -0.643138    -2.786512    -3.273619    -0.294284    1.439304    10.783922    0.047325    -1.137840    -0.221601    0.522065    12.905937    0.172217    -1.854800    -11.771933    0.796748    -9.236657    -3.108106    -5.216931    2.304168    97.414665    -4.759862    5.463269    -12.824508    0.357647    1.818533    19.241344    -0.297795    0.813508    -0.801623    -6.076498    -2.413336    -90.966339    1.549412    -6.080219    4.499459    7.187769    -1.001989    -1.188941    -3.246787    -6.767121    -5.779578    -4.108957    13.331809    0.000000    0.000000    0.000000    -3.837565    10.406375    2.606209    0.800965    -8.588243    2.389959    3.163926    -1.894138    -17.087126    0.000000    0.000000    0.000000    
-0.022148    0.894024    0.132895    -0.586616    1.785923    -176.361267    -0.034434    0.680909    -0.643138    -2.786512    -3.273619    -0.294284    1.439304    10.783922    0.047325    -1.137840    -0.221601    0.522065    12.905937    0.172217    -1.854800    -11.771933    0.796748    -9.236657    -3.108106    -5.216931    2.304168    97.414665    -4.759862    5.463269    -12.824508    0.357647    1.818533    19.241344    -0.297795    0.813508    -0.801623    -6.076498    -2.413336    -90.966339    1.549412    -6.080219    4.499459    7.187769    -1.001989    -1.188941    -3.246787    -6.767121    -5.779578    -4.108957    13.331809    0.000000    0.000000    0.000000    -3.837565    10.406375    2.606209    0.800965    -8.588243    2.389959    3.163926    -1.894138    -17.087126    0.000000    0.000000    0.000000    
-0.022148    0.894024    0.132895    -0.586616    1.785923    -176.361267    -0.034434    0.680909    -0.643138    -2.786512    -3.273619    -0.294284    1.439304    10.783922    0.047325    -1.137840    -0.221601    0.522065    12.905937    0.172217    -1.854800    -11.771933    0.796748    -9.236657    -3.108106    -5.216931    2.304168    97.414665    -4.759862    5.463269    -12.824508    0.357647    1.818533    19.241344    -0.297795    0.813508    -0.801623    -6.076498    -2.413336    -90.966339    1.549412    -6.080219    4.499459    7.187769    -1.001989    -1.188941    -3.246787    -6.767121    -5.779578    -4.108957    13.331809    0.000000    0.000000    0.000000    -3.837565    10.406375    2.606209    0.800965    -8.588243    2.389959    3.163926    -1.894138    -17.087126    0.000000    0.000000    0.000000    
-0.022830    0.893872    0.132654    -0.603006    1.800297    -176.345673    -0.052835    0.637987    -0.663166    -2.799625    -3.283167    -0.301577    1.431771    10.828780    0.035206    -0.873708    -0.180401    0.474924    13.004134    0.100726    -1.857429    -11.912090    0.717988    -9.210650    -3.245363    -5.301692    2.095774    98.245529    -4.654606    5.578252    -12.850386    0.227071    1.861948    19.607151    0.016311    0.789989    -1.124837    -6.345718    -2.343768    -90.982544    1.780684    -6.353325    4.467227    7.166105    -1.056386    -1.243426    -3.128995    -6.734963    -5.639870    -4.371197    13.283143    0.000000    0.000000    0.000000    -3.885117    10.380167    2.534332    0.788437    -8.463955    2.511970    3.180499    -2.094890    -17.114475    0.000000    0.000000    0.000000    
-0.022872    0.893838    0.132469    -0.590338    1.821569    -176.361771    0.007193    0.587141    -0.630540    -2.926607    -3.206110    -0.292176    1.563738    10.818875    -0.017741    -0.950881    -0.184618    0.460098    13.008344    0.062551    -1.831525    -11.595730    -0.593073    -9.298273    -4.080815    -4.854476    2.071573    99.078613    -4.744950    5.157868    -12.740876    0.220001    1.875044    19.682154    0.139572    0.787385    -1.282564    -6.341226    -2.562871    -91.629654    1.570455    -6.347409    4.464592    7.228944    -1.040115    -1.210855    -3.185520    -6.708230    -5.420544    -4.204260    13.163246    0.000000    0.000000    0.000000    -3.900581    10.406755    2.628327    0.829305    -8.463816    2.525447    3.141698    -2.122784    -17.215229    0.000000    0.000000    0.000000    
-0.022872    0.893838    0.132469    -0.590338    1.821569    -176.361771    0.007193    0.587141    -0.630540    -2.926607    -3.206110    -0.292176    1.563738    10.818875    -0.017741    -0.950881    -0.184618    0.460098    13.008344    0.062551    -1.831525    -11.595730    -0.593073    -9.298273    -4.080815    -4.854476    2.071573    99.078613    -4.744950    5.157868    -12.740876    0.220001    1.875044    19.682154    0.139572    0.787385    -1.282564    -6.341226    -2.562871    -91.629654    1.570455    -6.347409    4.464592    7.228944    -1.040115    -1.210855    -3.185520    -6.708230    -5.420544    -4.204260    13.163246    0.000000    0.000000    0.000000    -3.900581    10.406755    2.628327    0.829305    -8.463816    2.525447    3.141698    -2.122784    -17.215229    0.000000    0.000000    0.000000    
-0.022872    0.893838    0.132469    -0.590338    1.821569    -176.361771    0.007193    0.587141    -0.630540    -2.926607    -3.206110    -0.292176    1.563738    10.818875    -0.017741    -0.950881    -0.184618    0.460098    13.008344    0.062551    -1.831525    -11.595730    -0.593073    -9.298273    -4.080815    -4.854476    2.071573    99.078613    -4.744950    5.157868    -12.740876    0.220001    1.875044    19.682154    0.139572    0.787385    -1.282564    -6.341226    -2.562871    -91.629654    1.570455    -6.347409    4.464592    7.228944    -1.040115    -1.210855    -3.185520    -6.708230    -5.420544    -4.204260    13.163246    0.000000    0.000000    0.000000    -3.900581    10.406755    2.628327    0.829305    -8.463816    2.525447    3.141698    -2.122784    -17.215229    0.000000    0.000000    0.000000    
